HIERARCHY
ROOT root
{
	OFFSET 0.000000 0.000000 0.000000
	CHANNELS 6 Xposition Yposition Zposition Zrotation Yrotation Xrotation
	JOINT lhip
	{
		OFFSET 0.058581 -0.082280 -0.017664
		CHANNELS 3 Zrotation Yrotation Xrotation
		JOINT lknee
		{
			OFFSET 0.043451 -0.386469 0.008037
			CHANNELS 3 Zrotation Yrotation Xrotation
			JOINT lankle
			{
				OFFSET -0.014790 -0.426874 -0.037428
				CHANNELS 3 Zrotation Yrotation Xrotation
				JOINT ltoe
				{
					OFFSET 0.041054 -0.060286 0.122042
					CHANNELS 3 Zrotation Yrotation Xrotation
					End Site
					{
						OFFSET 0.000000 0.000000 0.000000
					}
				}
			}
		}
	}
	JOINT rhip
	{
		OFFSET -0.060310 -0.090513 -0.013543
		CHANNELS 3 Zrotation Yrotation Xrotation
		JOINT rknee
		{
			OFFSET -0.043257 -0.383688 -0.004843
			CHANNELS 3 Zrotation Yrotation Xrotation
			JOINT rankle
			{
				OFFSET 0.019056 -0.420046 -0.034562
				CHANNELS 3 Zrotation Yrotation Xrotation
				JOINT rtoe
				{
					OFFSET -0.034840 -0.062106 0.130323
					CHANNELS 3 Zrotation Yrotation Xrotation
					End Site
					{
						OFFSET 0.000000 0.000000 0.000000
					}
				}
			}
		}
	}
	JOINT lowerback
	{
		OFFSET 0.004439 0.124404 -0.038385
		CHANNELS 3 Zrotation Yrotation Xrotation
		JOINT upperback
		{
			OFFSET 0.004488 0.137956 0.026820
			CHANNELS 3 Zrotation Yrotation Xrotation
			JOINT chest
			{
				OFFSET -0.002265 0.056032 0.002855
				CHANNELS 3 Zrotation Yrotation Xrotation
				JOINT lowerneck
				{
					OFFSET -0.013390 0.211636 -0.033468
					CHANNELS 3 Zrotation Yrotation Xrotation
					JOINT upperneck
					{
						OFFSET 0.010113 0.088937 0.050410
						CHANNELS 3 Zrotation Yrotation Xrotation
						End Site
						{
							OFFSET 0.000000 0.000000 0.000000
						}
					}
				}
				JOINT lclavicle
				{
					OFFSET 0.071702 0.114000 -0.018898
					CHANNELS 3 Zrotation Yrotation Xrotation
					JOINT lshoulder
					{
						OFFSET 0.122921 0.045205 -0.019046
						CHANNELS 3 Zrotation Yrotation Xrotation
						JOINT lelbow
						{
							OFFSET 0.255332 -0.015649 -0.022946
							CHANNELS 3 Zrotation Yrotation Xrotation
							JOINT lwrist
							{
								OFFSET 0.265709 0.012698 -0.007375
								CHANNELS 3 Zrotation Yrotation Xrotation
								End Site
								{
									OFFSET 0.000000 0.000000 0.000000
								}
							}
						}
					}
				}
				JOINT rclavicle
				{
					OFFSET -0.082954 0.112472 -0.023707
					CHANNELS 3 Zrotation Yrotation Xrotation
					JOINT rshoulder
					{
						OFFSET -0.113228 0.046853 -0.008472
						CHANNELS 3 Zrotation Yrotation Xrotation
						JOINT relbow
						{
							OFFSET -0.260127 -0.014369 -0.031269
							CHANNELS 3 Zrotation Yrotation Xrotation
							JOINT rwrist
							{
								OFFSET -0.269108 0.006794 -0.006027
								CHANNELS 3 Zrotation Yrotation Xrotation
								End Site
								{
									OFFSET 0.000000 0.000000 0.000000
								}
							}
						}
					}
				}
			}
		}
	}
}
MOTION
Frames: 16
Frame Time: 0.033333
-0.028489 0.181477 1.012915 88.943518 -3.174503 82.827769 5.572878 5.247231 1.516687 -2.771006 3.146181 9.092991 -2.809540 10.516782 -2.559129 0.000000 -0.000000 0.000000 -2.453709 -5.261374 -2.625497 1.111468 -5.139865 15.060328 2.791892 -7.820492 -7.525395 0.000000 -0.000000 0.000000 0.732178 1.184920 14.314818 2.063735 -2.785222 6.794644 -0.887568 -0.144209 2.081002 -1.171239 0.773843 4.461506 1.140433 -2.767281 8.073883 -19.109631 -4.204286 6.262867 -45.298658 -7.855419 12.369976 30.018596 -79.051421 -25.703220 26.692971 0.599374 -51.345751 20.173393 6.136031 1.561896 51.514215 14.682658 7.708466 -79.254851 45.651372 -79.593698 -22.612983 -2.573238 -36.608104 
-0.027365 0.180296 1.013888 91.134457 -3.336525 82.460790 5.365161 5.218506 1.680167 -2.764136 1.506136 8.613238 -3.156191 10.305897 -1.925740 0.000000 -0.000000 0.000000 -2.798004 -6.022492 -1.665030 1.239955 -5.745512 14.440001 2.708240 -8.611333 -7.610414 0.000000 -0.000000 0.000000 0.796256 1.259812 14.168257 2.137087 -3.419151 5.957273 -0.693044 -0.287475 2.192419 -1.672119 1.256282 3.944942 1.521993 -2.972970 7.699327 -17.860778 -6.370015 4.636341 -40.710512 -10.791822 9.610801 28.580239 -72.876511 -28.708012 27.922860 2.422143 -51.677433 20.005052 6.803656 1.250997 51.807254 13.158948 8.685244 -77.953273 46.557528 -78.410324 -23.278346 -2.283142 -37.091064 
-0.026203 0.179403 1.015169 93.252142 -3.427342 82.029087 5.297769 5.066681 1.926831 -2.835616 0.145263 8.187097 -3.581985 9.939949 -1.399104 0.000000 -0.000000 0.000000 -3.084809 -6.692036 -0.550963 1.377241 -6.499977 13.723771 2.708616 -9.263541 -7.679836 0.000000 -0.000000 0.000000 0.946963 1.469057 14.245831 2.191647 -3.983146 4.990761 -0.601451 -0.543561 2.050089 -1.857626 2.128357 3.316361 1.868762 -3.293714 7.521950 -16.521798 -8.839274 3.145653 -35.336423 -13.475627 5.915875 28.662779 -66.279463 -31.458873 27.695378 1.614875 -49.273882 19.767406 7.756215 0.903082 52.388076 11.450430 9.470790 -76.421185 47.347347 -76.286888 -23.041592 -1.958210 -37.902110 
-0.024031 0.178683 1.016342 95.439507 -3.475315 81.745379 5.219840 4.734946 1.945504 -2.867196 -1.341869 7.960356 -4.080221 9.763311 -0.931947 0.000000 -0.000000 0.000000 -3.383075 -7.554296 0.655118 1.661177 -7.153579 12.671254 2.686993 -10.003319 -7.658250 0.000000 -0.000000 0.000000 0.932589 1.780592 14.095947 2.298819 -4.657824 4.129719 -0.406942 -0.804700 1.811509 -1.992323 3.101113 2.637668 2.439778 -3.740644 7.287117 -14.824553 -11.126161 1.633959 -29.677311 -15.711026 2.053705 27.676476 -60.697425 -33.817619 27.448314 0.586079 -48.358765 19.436640 8.500218 0.570177 52.921577 9.884676 10.179891 -74.440345 48.474215 -73.474857 -21.905663 -1.787583 -38.601112 
-0.021925 0.178377 1.017296 97.184701 -3.559714 81.601333 5.137261 4.276048 1.831566 -2.909747 -2.323687 7.865319 -4.456177 9.559923 -0.456157 0.000000 -0.000000 0.000000 -3.656933 -8.148071 1.610284 1.858682 -7.822266 11.768340 2.793513 -10.497604 -7.588592 0.000000 -0.000000 0.000000 0.805868 2.106260 14.024653 2.359306 -5.019958 3.046626 -0.214937 -0.800364 1.707847 -2.259386 3.909653 2.139539 2.969734 -4.030259 7.024264 -12.806027 -12.857689 -0.021343 -24.993866 -18.029935 -1.270021 27.966327 -56.087983 -37.474952 27.721844 -0.012133 -48.641728 18.887898 9.037445 0.304737 53.606997 8.349725 11.214395 -72.732568 49.575091 -70.944393 -21.710038 -1.674886 -38.949517 
-0.018964 0.178045 1.018115 98.510809 -3.592243 81.359405 5.165043 3.961403 2.027941 -2.961694 -3.063254 7.635825 -4.904436 9.437826 -0.034461 0.000000 -0.000000 0.000000 -3.782192 -8.530291 2.709960 1.932026 -8.445097 10.784544 2.837573 -10.842114 -7.448502 0.000000 -0.000000 0.000000 0.642173 2.571116 13.883858 2.422297 -5.107071 2.563320 0.052652 -0.772943 1.350418 -2.343360 4.943257 1.745189 3.277795 -4.000202 6.911359 -11.015038 -14.470218 -1.210939 -20.616243 -19.326342 -4.198768 31.403257 -53.354885 -42.319165 26.438981 -2.045077 -48.389289 18.350266 9.795972 0.447421 54.219358 6.854434 11.827767 -71.688494 50.713566 -69.090016 -20.578795 -1.001678 -40.647484 
-0.015273 0.177933 1.018944 99.524202 -3.625552 81.179854 5.165602 3.406720 2.301377 -3.008597 -3.533369 7.338771 -5.143207 9.387724 0.437077 0.000000 -0.000000 0.000000 -3.918328 -8.936248 3.801094 2.000493 -9.018210 9.728648 2.895135 -10.934199 -7.293785 0.000000 -0.000000 0.000000 0.497560 2.957647 13.527288 2.407390 -4.997562 2.248935 0.254193 -0.429458 1.187297 -2.530856 6.392607 1.380168 3.742651 -3.452772 7.280253 -9.347358 -15.219263 -2.291793 -17.804480 -20.797987 -6.373659 38.566896 -52.484476 -50.098574 26.136226 -2.852002 -49.404991 18.050486 10.196755 0.618325 54.890466 5.760745 12.486851 -70.929120 51.483911 -67.145515 -20.088808 -0.429783 -40.375208 
-0.011295 0.177700 1.019628 100.061590 -3.719300 81.090102 5.120083 2.946216 2.593574 -3.052369 -3.767201 7.055368 -5.266606 9.422702 0.804734 0.000000 -0.000000 0.000000 -4.075620 -9.232316 4.643350 2.002657 -9.470818 8.919708 2.935995 -10.755159 -7.102772 0.000000 -0.000000 0.000000 0.502074 3.181480 13.331358 2.192152 -4.515838 1.567240 0.340132 0.036671 1.216247 -2.604344 7.931258 1.495450 3.820250 -1.516523 7.887395 -7.829802 -14.791600 -3.636941 -16.304479 -22.455205 -7.860320 47.553205 -52.553798 -58.688383 26.304858 -2.854724 -51.565437 17.517684 10.085567 0.808682 55.968233 5.028868 13.420292 -70.251026 52.525441 -65.179671 -19.152616 -0.013175 -40.554734 
-0.007070 0.177650 1.020182 100.408372 -3.777406 80.976227 5.082945 2.442823 3.067960 -3.102072 -3.831199 6.642347 -5.421970 9.596508 0.948156 0.000000 -0.000000 0.000000 -4.236962 -9.476445 5.497672 2.033885 -9.852731 8.103286 2.997110 -10.484179 -6.868440 0.000000 -0.000000 0.000000 0.697389 3.316798 13.068888 1.857234 -3.856667 1.102222 0.340878 0.620528 1.299706 -2.579413 10.678868 1.652397 3.758250 1.872347 8.658114 -6.807471 -13.918266 -4.807013 -15.407479 -24.075785 -9.061527 58.431617 -52.560179 -68.449738 26.898609 -2.544146 -53.792375 17.168105 9.555913 0.974226 56.977678 4.686775 14.234622 -69.358900 53.568929 -63.594034 -18.571179 0.085846 -40.975354 
-0.002143 0.178085 1.020348 100.903418 -3.903664 80.935399 4.873375 1.804301 3.582719 -3.094440 -3.758286 6.083622 -5.409358 9.675586 1.012448 0.000000 -0.000000 0.000000 -4.483977 -9.709860 6.341747 2.072986 -10.190892 7.283434 3.046554 -10.354058 -6.747279 0.000000 -0.000000 0.000000 0.975052 3.342428 12.313265 1.421315 -3.274296 1.071057 0.265731 1.154217 1.538309 -2.386380 14.401651 2.144993 3.430828 6.713769 9.357672 -6.238597 -12.607378 -5.785325 -15.078036 -25.231988 -9.704706 70.707867 -52.121866 -79.378771 28.023107 -2.265110 -55.548485 17.075138 8.850708 1.296932 57.929651 4.532638 15.183143 -69.225982 54.520869 -62.954083 -18.046756 0.715488 -40.707105 
0.001980 0.177929 1.020369 101.287443 -3.968672 80.936967 4.797641 1.463480 4.023834 -3.196589 -3.742773 5.527295 -5.348957 9.845863 0.984961 0.000000 -0.000000 0.000000 -4.545388 -9.847466 6.836616 1.996556 -10.408406 6.855245 3.050457 -10.244980 -6.680215 0.000000 -0.000000 0.000000 1.160469 3.243083 11.845205 1.036292 -2.547188 0.755876 0.309775 1.733059 1.807209 -2.022384 18.201241 2.883784 3.258074 12.094151 10.122705 -6.138620 -10.992143 -6.393885 -15.308396 -25.811668 -9.854390 83.797036 -50.814634 -90.449633 29.352298 -1.299791 -57.768058 17.247293 8.121914 1.647130 58.533530 4.442217 15.968036 -68.864712 55.486128 -62.018245 -17.733820 1.336848 -39.681501 
0.005585 0.178319 1.020123 101.996370 -3.938092 80.857546 4.655801 1.033569 4.463895 -3.125592 -3.738730 4.995274 -5.234888 9.837417 0.704702 0.000000 -0.000000 0.000000 -4.559974 -9.826220 7.209912 1.903734 -11.010550 6.808002 2.997340 -10.210057 -6.789145 0.000000 -0.000000 0.000000 1.617633 2.978438 11.433291 0.565712 -1.838038 0.652361 0.178669 2.164380 2.084874 -1.448157 22.105517 3.692836 3.027536 17.274796 10.963996 -6.473389 -9.126202 -6.771442 -16.245991 -26.102294 -9.649471 96.415706 -48.095702 -100.311879 29.749990 -1.382896 -60.238982 17.434263 7.025017 1.948531 59.147513 4.613369 16.626382 -68.372362 56.496849 -60.799428 -17.202515 2.074831 -38.901900 
0.009106 0.178791 1.019591 102.610986 -3.846643 80.826588 4.531351 0.794025 4.932619 -2.955434 -3.918773 4.432166 -4.948476 9.879158 0.397810 0.000000 -0.000000 0.000000 -4.512236 -9.858450 7.500576 1.825637 -11.484896 6.820391 2.870973 -10.115378 -7.003744 0.000000 -0.000000 0.000000 2.131733 2.735253 10.987259 0.062753 -0.977927 0.548093 0.073465 2.436125 2.487286 -0.985669 24.811812 4.733377 2.625640 21.686849 11.331186 -7.113454 -6.830102 -7.063230 -17.946694 -26.249711 -9.230167 107.798090 -44.414315 -108.569866 30.071572 -1.036141 -62.385198 17.430007 5.908547 2.134018 59.685580 4.701862 17.161347 -67.440041 57.667610 -59.303875 -16.846348 2.752447 -38.537699 
0.012117 0.179112 1.018864 103.188056 -3.779644 80.673508 4.428557 0.628679 5.417081 -2.854420 -4.299665 3.978445 -4.736006 9.905851 0.221298 0.000000 -0.000000 0.000000 -4.530611 -9.793864 7.796924 1.787323 -11.984513 6.975074 2.789437 -10.025511 -7.203467 0.000000 -0.000000 0.000000 2.595593 2.481555 10.721924 -0.496575 -0.101168 0.720436 -0.071712 2.747005 2.747863 -0.611356 26.294033 5.776965 2.295333 24.894028 11.280508 -8.065466 -4.539338 -6.916476 -19.945003 -25.878311 -8.791754 117.476667 -39.891593 -114.968023 30.285287 -0.746158 -64.445488 17.400602 4.928903 2.326571 60.199630 4.724093 17.298139 -66.466569 58.850524 -57.850873 -16.618058 3.467850 -38.650498 
0.014627 0.179549 1.018335 103.790474 -3.746109 80.558695 4.310548 0.255168 5.658853 -2.844872 -4.427970 3.910025 -4.506213 9.886409 -0.077559 0.000000 -0.000000 0.000000 -4.518838 -9.860924 7.857146 1.596576 -12.315578 7.403159 2.645344 -10.034264 -7.480342 0.000000 -0.000000 0.000000 2.926489 2.251712 10.592336 -1.046266 0.688314 0.760998 -0.269900 3.023859 2.981752 -0.260561 26.504879 6.373106 2.288214 26.538837 11.770455 -9.229491 -1.890800 -6.750210 -22.632331 -25.309658 -7.936520 125.387708 -35.408692 -120.028522 30.480370 -0.167039 -66.700091 17.595032 3.966042 2.756213 60.540160 4.852217 17.351235 -65.579942 59.675428 -56.815543 -16.585460 3.703285 -38.367747 
0.016358 0.179960 1.017654 104.142264 -3.743208 80.454007 4.228056 -0.077474 5.720036 -2.950802 -4.473849 4.193058 -4.284148 9.881137 -0.372929 0.000000 -0.000000 0.000000 -4.541309 -9.781964 7.870979 1.476684 -12.525684 7.784089 2.417782 -10.051193 -7.727858 0.000000 -0.000000 0.000000 3.218075 1.991105 10.340755 -1.596241 1.497054 1.003964 -0.549365 3.308477 3.290831 -0.149134 25.690293 6.605478 2.365242 26.759068 12.324133 -10.563926 0.820495 -6.163158 -25.377065 -24.343548 -7.348330 131.233830 -31.416414 -122.675177 30.511179 -0.152720 -67.566483 17.741122 3.364339 3.188403 60.673363 5.082347 17.212996 -64.333802 60.492424 -55.455641 -16.779270 3.968542 -38.683139 
